<svg width="18" height="20" viewBox="0 0 18 20" fill="none" xmlns="http://www.w3.org/2000/svg">
<path d="M16.7498 12.01L15.6198 10.13C15.3698 9.72 15.1498 8.93 15.1498 8.45V6.58C15.1498 2.95 12.1998 0 8.57977 0C4.94977 0.01 1.99977 2.95 1.99977 6.58V8.44C1.99977 8.92 1.77977 9.71 1.53977 10.12L0.409773 12C-0.020227 12.73 -0.120227 13.56 0.149773 14.28C0.419773 15.01 1.02977 15.59 1.82977 15.85C2.90977 16.21 3.99977 16.47 5.10977 16.66C5.21977 16.68 5.32977 16.69 5.43977 16.71L5.87977 16.77C6.13977 16.81 6.39977 16.84 6.66977 16.86C7.93031 16.9789 9.19923 16.9789 10.4598 16.86C10.6898 16.84 10.9198 16.82 11.1398 16.79C11.3198 16.77 11.4998 16.75 11.6798 16.72C11.7898 16.71 11.8998 16.69 12.0098 16.67C13.1298 16.49 14.2398 16.21 15.3198 15.85C15.6934 15.7251 16.0345 15.5185 16.3181 15.2451C16.6018 14.9718 16.821 14.6387 16.9598 14.27C17.2398 13.52 17.1598 12.7 16.7498 12.01ZM9.30977 7.95C9.30977 8.15156 9.2297 8.34487 9.08717 8.4874C8.94465 8.62993 8.75134 8.71 8.54977 8.71C8.34821 8.71 8.1549 8.62993 8.01237 8.4874C7.86984 8.34487 7.78977 8.15156 7.78977 7.95V4.85C7.78977 4.64844 7.86984 4.45513 8.01237 4.3126C8.1549 4.17007 8.34821 4.09 8.54977 4.09C8.75134 4.09 8.94465 4.17007 9.08717 4.3126C9.2297 4.45513 9.30977 4.64844 9.30977 4.85V7.95ZM11.3898 17.96C11.1795 18.5422 10.7951 19.0454 10.2887 19.4015C9.78241 19.7575 9.17874 19.949 8.55977 19.95C7.76977 19.95 6.98977 19.63 6.43977 19.06C6.11977 18.76 5.87977 18.36 5.73977 17.95C5.86977 17.97 5.99977 17.98 6.13977 18C6.36977 18.03 6.60977 18.06 6.84977 18.08C7.41977 18.13 7.99977 18.16 8.57977 18.16C9.14977 18.16 9.71977 18.13 10.2798 18.08C10.4898 18.06 10.6998 18.05 10.8998 18.02L11.3898 17.96Z" fill="#979797"/>
</svg>
